<svg height="512pt" viewBox="0 0 512.00073 512" width="512pt" xmlns="http://www.w3.org/2000/svg"><path d="m189.0625 279.917969-158.84375 121.03125c-27.777344 21.167969-30.519531 61.964843-5.824219 86.660156 24.691407 24.691406 65.492188 21.949219 86.65625-5.828125l121.03125-158.84375zm-102.082031 182.136719c-10.226563 10.226562-26.808594 10.226562-37.035157 0-10.226562-10.226563-10.226562-26.808594 0-37.035157 10.226563-10.226562 26.808594-10.226562 37.035157 0 10.226562 10.230469 10.226562 26.808594 0 37.035157zm0 0" fill="#45748c"/><path d="m202.898438 361.242188-39.734376-39.777344-80.910156 99.8125c1.675782 1.042968 3.269532 2.285156 4.726563 3.742187 10.226562 10.230469 10.226562 26.808594 0 37.035157-10.226563 10.226562-26.808594 10.226562-37.035157 0-1.535156-1.539063-2.839843-3.222657-3.914062-5-11.601562 5.121093-24.625 6.285156-36.921875 3.328124 2.386719 9.9375 7.449219 19.390626 15.285156 27.226563 24.691407 24.691406 65.492188 21.949219 86.65625-5.828125zm0 0" fill="#236575"/><path d="m497.851562 184.316406-170.164062-170.164062c-10.988281-10.988282-29.523438-7.90625-36.363281 6.042968l-138.773438 283.007813 56.25 56.246094 283.003907-138.773438c13.953124-6.839843 17.03125-25.375 6.046874-36.359375zm0 0" fill="#efefef"/><path d="m497.851562 184.316406-38.003906-38.007812c8.921875 8.925781 6.417969 23.980468-4.910156 29.535156l-288.351562 141.394531 42.210937 42.210938 283.007813-138.773438c13.953124-6.839843 17.03125-25.375 6.046874-36.359375zm0 0" fill="#d8d8d8"/><path d="m204.78125 382.09375-74.875-74.871094c-7.414062-7.414062-7.414062-19.433594 0-26.847656l.804688-.804688c7.414062-7.414062 19.433593-7.414062 26.847656 0l74.871094 74.871094c7.414062 7.414063 7.414062 19.433594 0 26.847656l-.800782.804688c-7.414062 7.414062-19.4375 7.414062-26.847656 0zm0 0" fill="#ff8c51"/><path d="m497.851562 184.316406-170.164062-170.164062c-10.988281-10.988282-29.523438-7.90625-36.363281 6.042968l-12.050781 24.578126 187.953124 187.953124 24.578126-12.050781c13.953124-6.839843 17.03125-25.375 6.046874-36.359375zm0 0" fill="#d8d8d8"/><path d="m425.015625 190.515625 42.210937 42.210937 24.578126-12.050781c2.179687-1.070312 4.09375-2.421875 5.730468-3.992187 8.839844-8.457032 9.585938-23.101563.316406-32.371094l-38.003906-38.003906c8.921875 8.925781 6.417969 23.976562-4.910156 29.535156zm0 0" fill="#ccc"/><path d="m503.152344 179.011719-170.164063-170.164063c-6.96875-6.972656-16.542969-10.042968-26.265625-8.425781-9.726562 1.617187-17.792968 7.621094-22.128906 16.472656l-124.882812 254.675781c-10.351563-7.53125-24.972657-6.632812-34.300782 2.695313l-.804687.804687c-10.328125 10.328126-10.328125 27.128907 0 37.453126l74.871093 74.875c5.164063 5.164062 11.945313 7.746093 18.726563 7.746093s13.5625-2.582031 18.726563-7.746093l.804687-.804688c9.332031-9.332031 10.230469-23.953125 2.695313-34.300781l254.679687-124.882813c8.851563-4.339844 14.851563-12.40625 16.46875-22.128906 1.617187-9.726562-1.453125-19.300781-8.425781-26.269531zm-276.023438 196.972656-.804687.808594c-2.171875 2.167969-5.054688 3.359375-8.121094 3.359375-3.070313 0-5.953125-1.191406-8.121094-3.359375l-74.875-74.875c-2.167969-2.167969-3.359375-5.050781-3.359375-8.121094 0-3.066406 1.191406-5.949219 3.359375-8.121094l.808594-.804687c2.167969-2.167969 5.050781-3.363282 8.117187-3.363282 3.070313 0 5.953126 1.195313 8.121094 3.363282l4.296875 4.292968c.074219.082032.152344.160157.230469.234376l65.804688 65.800781c.082031.085937.164062.171875.25.253906l4.292968 4.292969c2.167969 2.167968 3.363282 5.050781 3.363282 8.121094 0 3.066406-1.195313 5.949218-3.363282 8.117187zm269.652344-173.164063c-.8125 4.886719-3.828125 8.941407-8.277344 11.121094l-19.765625 9.691406-136.269531-136.273437c-2.929688-2.925781-7.679688-2.925781-10.605469 0-2.929687 2.929687-2.929687 7.679687 0 10.609375l132.644531 132.644531-224.980468 110.320313-58.460938-58.460938 110.324219-224.976562 19.128906 19.128906c1.464844 1.464844 3.382813 2.195312 5.300781 2.195312 1.921876 0 3.839844-.730468 5.304688-2.195312 2.929688-2.929688 2.929688-7.679688 0-10.605469l-22.757812-22.757812 9.691406-19.761719c2.179687-4.449219 6.234375-7.46875 11.125-8.28125 4.882812-.808594 9.695312.734375 13.199218 4.234375l170.164063 170.164063c3.503906 3.503906 5.046875 8.316406 4.234375 13.203124zm0 0"/><path d="m180.777344 390.269531c-3.292969-2.511719-8-1.875-10.507813 1.417969l-65.183593 85.546875c-8.777344 11.519531-22.097657 18.683594-36.542969 19.652344-14.441407.976562-28.605469-4.34375-38.847657-14.582031-10.238281-10.238282-15.554687-24.398438-14.582031-38.84375.972657-14.449219 8.132813-27.769532 19.652344-36.546876l85.546875-65.179687c3.292969-2.511719 3.929688-7.21875 1.417969-10.511719-2.507813-3.292968-7.214844-3.929687-10.507813-1.421875l-85.550781 65.183594c-14.957031 11.398437-24.261719 28.703125-25.523437 47.46875-1.261719 18.765625 5.640624 37.160156 18.941406 50.457031 12.265625 12.265625 28.855468 19.089844 46.082031 19.089844 1.453125 0 2.914063-.046875 4.375-.144531 18.769531-1.261719 36.070313-10.566407 47.46875-25.527344l65.183594-85.546875c2.507812-3.296875 1.875-8.003906-1.421875-10.511719zm0 0"/><path d="m44.644531 419.71875c-13.136719 13.132812-13.136719 34.503906 0 47.640625 6.566407 6.566406 15.191407 9.847656 23.816407 9.847656 8.628906 0 17.253906-3.28125 23.824218-9.847656 13.132813-13.136719 13.132813-34.507813 0-47.640625-13.136718-13.136719-34.507812-13.132812-47.640625 0zm37.03125 10.605469c7.285157 7.285156 7.285157 19.140625 0 26.425781-7.285156 7.285156-19.140625 7.289062-26.425781 0-7.285156-7.285156-7.285156-19.140625 0-26.425781 3.644531-3.644531 8.425781-5.464844 13.210938-5.464844 4.785156 0 9.574218 1.820313 13.214843 5.464844zm0 0"/></svg>